<svg width="327" height="178" viewBox="0 0 327 178" fill="none" xmlns="http://www.w3.org/2000/svg">
<g clip-path="url(#clip0_156_594)">
<path d="M-4.60104 53.5826L-4.82499 -1.46037L77.0681 -1.79349L-4.60104 53.5826Z" fill="#7856FF" fill-opacity="0.32"/>
<path d="M328.5 47L328.486 -2.9559L221.987 -2.9881L328.5 47Z" fill="#7856FF" fill-opacity="0.32"/>
<path d="M0.216219 178L-2.89477e-06 112L146 178L0.216219 178Z" fill="#7856FF" fill-opacity="0.32"/>
<path d="M182 178L329 105.5L329 178L182 178Z" fill="#7856FF" fill-opacity="0.32"/>
<path d="M275 -1.7804L328.982 -1.78831L328.955 177.551L275 -1.7804Z" fill="#7856FF" fill-opacity="0.26"/>
<path d="M65.0018 179.5L299.5 120L182.001 178L65.0018 179.5Z" fill="#7856FF" fill-opacity="0.16"/>
<path d="M37.5 129L-0.500001 30.5L-0.499999 51L-2 111L37.5 129Z" fill="#7856FF" fill-opacity="0.16"/>
<path d="M2.40525e-06 31.5L228.501 -4.04559e-05L74.5001 -3.50915e-05L2.40525e-06 31.5Z" fill="#7856FF" fill-opacity="0.1"/>
</g>
<defs>
<clipPath id="clip0_156_594">
<rect width="327" height="178" fill="white"/>
</clipPath>
</defs>
</svg>
