<svg width="55" height="56" viewBox="0 0 55 56" fill="none" xmlns="http://www.w3.org/2000/svg">
<g clip-path="url(#clip0_398_288)">
<path d="M26.9637 15.3066L29.1552 29.5561L26.9637 54.4965L5.19406 47.3692L5.5 22.8072L26.9637 15.3066Z" fill="#C48958"/>
<path d="M48.7352 22.4308V47.3711L26.9637 54.4967V15.3052L48.7352 22.4324V22.4308Z" fill="#E3A76F"/>
<path d="M24.0711 21.3019C24.4239 20.5831 24.5068 19.764 24.3048 18.9906C24.102 18.2185 23.6276 17.5431 22.9659 17.09L22.7339 16.9237L22.012 16.6793L16.0256 14.9773C15.874 14.9268 15.7101 14.9249 15.5573 14.9718C15.4046 15.0188 15.2707 15.1121 15.1748 15.2386C15.0778 15.3645 15.0228 15.5171 15.0176 15.6752C15.0123 15.8333 15.0571 15.9891 15.1456 16.121L19.293 22.3523C19.4958 22.5525 19.7244 22.7256 19.9719 22.8699C20.7281 23.1516 21.5634 23.1465 22.318 22.858C23.0751 22.5679 23.6986 22.0144 24.0711 21.3019V21.3019Z" fill="#FFA400"/>
<path d="M18.0022 25.7937L19.0695 23.0718L18.0142 25.8022C16.4673 26.7118 9.00453 31.4022 6.10671 39.7411L5.81796 40.5692C5.71257 40.942 5.75684 41.3406 5.94157 41.682C6.12629 42.0233 6.43723 42.2812 6.80968 42.402L30.4855 50.4218C31.0492 48.8012 21.7955 42.7414 23.2547 38.543C25.7228 31.4243 20.6594 27.3668 18.0022 25.7937V25.7937Z" fill="#E6E6E6"/>
<path d="M19.3531 22.3627C20.998 22.9804 22.6995 23.0652 23.5727 21.3428C23.9245 20.5787 23.9943 19.7172 23.7702 18.9076C23.546 18.098 23.042 17.3914 22.3455 16.9103L22.0962 16.7338C23.7878 14.6322 26.2275 13.2467 28.918 12.8596C31.6047 12.4733 34.3393 13.1163 36.5612 14.6567C38.4426 15.9557 39.8413 17.8272 40.5436 19.9852C41.2471 22.1461 41.2169 24.4746 40.4577 26.617L40.4405 26.6679C40.1277 27.5707 35.53 41.065 32.493 49.543C32.2214 50.3219 31.1437 50.6461 30.3703 50.383L28.8922 49.8824C27.7684 49.505 26.7311 48.9121 25.84 48.1378C24.949 47.3634 24.2217 46.4229 23.6998 45.3702C22.6422 43.2422 22.4834 40.7868 23.2581 38.5433C25.7331 31.4194 20.6852 27.3704 18.0331 25.7736L19.3548 22.3627H19.3531Z" fill="#404041"/>
<path d="M32.5497 22.0572C32.3538 22.6308 31.9911 23.1348 31.5099 23.5064C31.0286 23.878 30.4494 24.0987 29.8444 24.1411C29.2405 24.1851 28.6371 24.0484 28.1131 23.7487C27.5891 23.449 27.1688 23.0003 26.907 22.4611C26.6431 21.9161 26.5457 21.307 26.6266 20.7082C26.7074 20.1094 26.9632 19.5469 27.3625 19.0892C27.7609 18.6326 28.2871 18.3026 28.875 18.1406C29.3589 18.0088 29.8685 17.9981 30.3576 18.1095C30.8467 18.2209 31.3 18.4509 31.6766 18.7787C32.1294 19.1797 32.4524 19.7036 32.6053 20.2849C32.7581 20.8663 32.734 21.4792 32.5359 22.047L32.5497 22.0572V22.0572ZM31.295 21.633C31.4095 21.3098 31.4257 20.9605 31.3414 20.6284C31.2555 20.2957 31.0767 20.0005 30.8224 19.7731C30.5684 19.5459 30.2509 19.3998 29.9114 19.3537C29.5719 19.3077 29.2263 19.364 28.9197 19.5151C28.6083 19.6658 28.3488 19.9037 28.1736 20.1992C27.9984 20.4947 27.9154 20.8346 27.9349 21.1765C27.952 21.5176 28.0724 21.8451 28.2769 22.1183C28.4465 22.343 28.6702 22.5223 28.9277 22.6403C29.1851 22.7582 29.4683 22.8109 29.7516 22.7937C29.9793 22.7794 30.2018 22.7206 30.4063 22.6207C30.6107 22.5207 30.7931 22.3817 30.9427 22.2116C31.0945 22.0409 31.2113 21.8426 31.2864 21.6279L31.295 21.6313V21.633Z" fill="white"/>
<path d="M28.9029 22.9088C28.6478 22.829 28.4112 22.6988 28.2073 22.5261C28.0033 22.3533 27.836 22.1414 27.7154 21.9028C27.5947 21.6643 27.5231 21.404 27.5047 21.1373C27.4864 20.8706 27.5217 20.603 27.6085 20.3501C27.6954 20.0973 27.832 19.8645 28.0104 19.6654C28.1888 19.4663 28.4053 19.305 28.6471 19.191C28.8889 19.077 29.1511 19.0126 29.4181 19.0017C29.6852 18.9907 29.9518 19.0334 30.2021 19.1273C30.6898 19.3101 31.0869 19.676 31.309 20.1471C31.5311 20.6182 31.5607 21.1573 31.3915 21.6499C31.2222 22.1424 30.8676 22.5495 30.4028 22.7846C29.9381 23.0197 29.4 23.0643 28.9029 22.9088V22.9088Z" fill="white"/>
<path d="M26.4 28.2378L32.2661 38.4366L35.2 49.7706L26.4 54.3016V28.2378Z" fill="#E3A76F"/>
<path d="M26.4 54.3032V28.2378L19.8 38.0123L5.49999 33.6681V43.4426L26.4 54.3032Z" fill="#C48958"/>
<path d="M46.2 36.926V45.8114L28.6 47.7866V36.926H46.2V36.926ZM20.4995 39.0982L26.4 28.2376L5.90047 21.7212L-8.09193e-06 31.7944L20.4995 39.0982Z" fill="#E3A76F"/>
<path d="M31.9 39.0982L26.4 28.2376L48.608 21.7212L55 31.7944L31.9 39.0982Z" fill="#F2D1A5"/>
<path d="M27.7195 20.7173L31.2805 21.2826" stroke="black"/>
<path d="M24.3182 6.27273V6.06818C24.3182 5.59943 24.3551 5.22585 24.429 4.94744C24.5028 4.66903 24.6122 4.44602 24.7571 4.27841C24.902 4.10795 25.0795 3.95455 25.2898 3.81818C25.4716 3.69886 25.6335 3.58381 25.7756 3.47301C25.9205 3.36222 26.0341 3.24432 26.1165 3.11932C26.2017 2.99432 26.2443 2.85227 26.2443 2.69318C26.2443 2.55114 26.2102 2.42614 26.142 2.31818C26.0739 2.21023 25.9815 2.12642 25.8651 2.06676C25.7486 2.0071 25.6193 1.97727 25.4773 1.97727C25.3239 1.97727 25.1818 2.01278 25.0511 2.08381C24.9233 2.15483 24.8196 2.25284 24.7401 2.37784C24.6634 2.50284 24.625 2.64773 24.625 2.8125H22.4432C22.4489 2.1875 22.5909 1.6804 22.8693 1.29119C23.1477 0.899148 23.517 0.612216 23.9773 0.430397C24.4375 0.245738 24.9432 0.153409 25.4943 0.153409C26.1023 0.153409 26.6449 0.242898 27.1222 0.421875C27.5994 0.598011 27.9759 0.865056 28.2514 1.22301C28.527 1.57812 28.6648 2.02273 28.6648 2.55682C28.6648 2.90057 28.6051 3.20312 28.4858 3.46449C28.3693 3.72301 28.206 3.9517 27.9957 4.15057C27.7884 4.34659 27.5455 4.52557 27.267 4.6875C27.0625 4.80682 26.8906 4.9304 26.7514 5.05824C26.6122 5.18324 26.5071 5.3267 26.4361 5.48864C26.3651 5.64773 26.3295 5.84091 26.3295 6.06818V6.27273H24.3182ZM25.358 9.13636C25.0284 9.13636 24.7457 9.02131 24.5099 8.79119C24.277 8.55824 24.1619 8.27557 24.1648 7.94318C24.1619 7.61932 24.277 7.34233 24.5099 7.11222C24.7457 6.8821 25.0284 6.76705 25.358 6.76705C25.6705 6.76705 25.946 6.8821 26.1847 7.11222C26.4261 7.34233 26.5483 7.61932 26.5511 7.94318C26.5483 8.16477 26.4901 8.36648 26.3764 8.5483C26.2656 8.72727 26.1207 8.87074 25.9418 8.97869C25.7628 9.08381 25.5682 9.13636 25.358 9.13636Z" fill="#404041"/>
<path d="M33.3182 8.27273V8.06818C33.3182 7.59943 33.3551 7.22585 33.429 6.94744C33.5028 6.66903 33.6122 6.44602 33.7571 6.27841C33.902 6.10795 34.0795 5.95455 34.2898 5.81818C34.4716 5.69886 34.6335 5.58381 34.7756 5.47301C34.9205 5.36222 35.0341 5.24432 35.1165 5.11932C35.2017 4.99432 35.2443 4.85227 35.2443 4.69318C35.2443 4.55114 35.2102 4.42614 35.142 4.31818C35.0739 4.21023 34.9815 4.12642 34.8651 4.06676C34.7486 4.0071 34.6193 3.97727 34.4773 3.97727C34.3239 3.97727 34.1818 4.01278 34.0511 4.08381C33.9233 4.15483 33.8196 4.25284 33.7401 4.37784C33.6634 4.50284 33.625 4.64773 33.625 4.8125H31.4432C31.4489 4.1875 31.5909 3.6804 31.8693 3.29119C32.1477 2.89915 32.517 2.61222 32.9773 2.4304C33.4375 2.24574 33.9432 2.15341 34.4943 2.15341C35.1023 2.15341 35.6449 2.2429 36.1222 2.42188C36.5994 2.59801 36.9759 2.86506 37.2514 3.22301C37.527 3.57812 37.6648 4.02273 37.6648 4.55682C37.6648 4.90057 37.6051 5.20312 37.4858 5.46449C37.3693 5.72301 37.206 5.9517 36.9957 6.15057C36.7884 6.34659 36.5455 6.52557 36.267 6.6875C36.0625 6.80682 35.8906 6.9304 35.7514 7.05824C35.6122 7.18324 35.5071 7.3267 35.4361 7.48864C35.3651 7.64773 35.3295 7.84091 35.3295 8.06818V8.27273H33.3182ZM34.358 11.1364C34.0284 11.1364 33.7457 11.0213 33.5099 10.7912C33.277 10.5582 33.1619 10.2756 33.1648 9.94318C33.1619 9.61932 33.277 9.34233 33.5099 9.11222C33.7457 8.8821 34.0284 8.76705 34.358 8.76705C34.6705 8.76705 34.946 8.8821 35.1847 9.11222C35.4261 9.34233 35.5483 9.61932 35.5511 9.94318C35.5483 10.1648 35.4901 10.3665 35.3764 10.5483C35.2656 10.7273 35.1207 10.8707 34.9418 10.9787C34.7628 11.0838 34.5682 11.1364 34.358 11.1364Z" fill="#404041"/>
<path d="M41.3182 12.2727V12.0682C41.3182 11.5994 41.3551 11.2259 41.429 10.9474C41.5028 10.669 41.6122 10.446 41.7571 10.2784C41.902 10.108 42.0795 9.95455 42.2898 9.81818C42.4716 9.69886 42.6335 9.58381 42.7756 9.47301C42.9205 9.36222 43.0341 9.24432 43.1165 9.11932C43.2017 8.99432 43.2443 8.85227 43.2443 8.69318C43.2443 8.55114 43.2102 8.42614 43.142 8.31818C43.0739 8.21023 42.9815 8.12642 42.8651 8.06676C42.7486 8.0071 42.6193 7.97727 42.4773 7.97727C42.3239 7.97727 42.1818 8.01278 42.0511 8.08381C41.9233 8.15483 41.8196 8.25284 41.7401 8.37784C41.6634 8.50284 41.625 8.64773 41.625 8.8125H39.4432C39.4489 8.1875 39.5909 7.6804 39.8693 7.29119C40.1477 6.89915 40.517 6.61222 40.9773 6.4304C41.4375 6.24574 41.9432 6.15341 42.4943 6.15341C43.1023 6.15341 43.6449 6.2429 44.1222 6.42188C44.5994 6.59801 44.9759 6.86506 45.2514 7.22301C45.527 7.57812 45.6648 8.02273 45.6648 8.55682C45.6648 8.90057 45.6051 9.20312 45.4858 9.46449C45.3693 9.72301 45.206 9.9517 44.9957 10.1506C44.7884 10.3466 44.5455 10.5256 44.267 10.6875C44.0625 10.8068 43.8906 10.9304 43.7514 11.0582C43.6122 11.1832 43.5071 11.3267 43.4361 11.4886C43.3651 11.6477 43.3295 11.8409 43.3295 12.0682V12.2727H41.3182ZM42.358 15.1364C42.0284 15.1364 41.7457 15.0213 41.5099 14.7912C41.277 14.5582 41.1619 14.2756 41.1648 13.9432C41.1619 13.6193 41.277 13.3423 41.5099 13.1122C41.7457 12.8821 42.0284 12.767 42.358 12.767C42.6705 12.767 42.946 12.8821 43.1847 13.1122C43.4261 13.3423 43.5483 13.6193 43.5511 13.9432C43.5483 14.1648 43.4901 14.3665 43.3764 14.5483C43.2656 14.7273 43.1207 14.8707 42.9418 14.9787C42.7628 15.0838 42.5682 15.1364 42.358 15.1364Z" fill="#404041"/>
</g>
<defs>
<clipPath id="clip0_398_288">
<rect width="55" height="56" fill="white" transform="matrix(-1 0 0 1 55 0)"/>
</clipPath>
</defs>
</svg>
