<svg width="432" height="275" viewBox="0 0 432 275" fill="none" xmlns="http://www.w3.org/2000/svg">
<g clip-path="url(#clip0_232_273)">
<path d="M91.6697 64.7609L108.008 87.0382C108.008 87.0382 121.938 92.8889 138.218 104.636L134.321 110.713C134.321 110.713 107.449 99.7222 100.572 95.0783L88.0151 75.4149L91.6697 64.7609V64.7609Z" fill="#A0616A"/>
<path d="M147.988 115.426C149.547 113.147 147.696 109.173 143.853 106.55C140.01 103.927 135.631 103.649 134.072 105.928C132.513 108.207 134.364 112.181 138.207 114.804C142.05 117.427 146.429 117.705 147.988 115.426Z" fill="#A0616A"/>
<path d="M83.6841 45.7431L89.0309 44.2283C89.0309 44.2283 92.1433 44.2342 93.8991 47.2877C95.655 50.3412 108.087 77.5667 107.498 78.6214C106.909 79.6761 106.086 79.9092 107.142 80.4977C108.198 81.0863 109.165 80.7879 108.445 81.6699C107.725 82.5518 108.72 84.4894 108.72 84.4894L95.0044 94.5969L83.6841 45.7431V45.7431Z" fill="#7856FF"/>
<path d="M62.9398 269.614L69.4629 269.613L72.566 244.482L62.9385 244.482L62.9398 269.614Z" fill="#A0616A"/>
<path d="M85.2886 269.466C85.4917 269.808 85.5988 270.91 85.5988 271.308C85.5988 272.529 84.6076 273.519 83.3849 273.519H63.1837C62.3495 273.519 61.6733 272.844 61.6733 272.011V271.171C61.6733 271.171 60.674 268.646 62.7314 265.534C62.7314 265.534 65.2886 267.97 69.1096 264.154L70.2364 262.115L78.3928 268.073L82.9138 268.629C83.9029 268.751 84.7798 268.61 85.2886 269.466V269.466Z" fill="#2F2E41"/>
<path d="M86.5488 263.264L92.9819 264.343L100.211 240.072L90.7162 238.48L86.5488 263.264Z" fill="#A0616A"/>
<path d="M108.613 266.817C108.757 267.188 108.68 268.293 108.614 268.685C108.411 269.889 107.27 270.701 106.064 270.499L86.1417 267.156C85.3191 267.018 84.7643 266.24 84.9025 265.418L85.0418 264.59C85.0418 264.59 84.4751 261.934 87.0203 259.206C87.0203 259.206 89.1379 262.032 93.5392 258.901L94.9887 257.077L102.044 264.302L106.41 265.599C107.366 265.882 108.254 265.889 108.613 266.817H108.613Z" fill="#2F2E41"/>
<path d="M99.9206 134.31C99.9206 134.31 108.685 144.558 108.685 153.953C108.685 163.347 108.899 192.859 108.899 192.859C108.899 192.859 103.768 238.93 102.486 242.774C101.203 246.617 100.562 253.022 100.562 253.022L88.1639 250.033C88.1639 250.033 86.4538 206.69 91.584 196.442L79.186 161.426L74.9108 260.495H60.5183C60.5183 260.495 53.1074 208.398 56.9551 194.734C56.9551 194.734 48.4047 142.637 50.5423 139.648C52.6799 136.659 99.9206 134.31 99.9206 134.31V134.31Z" fill="#2F2E41"/>
<path d="M68.0706 32.2517L79.6136 33.1058L83.4612 39.5111C83.4612 39.5111 92.4391 43.3543 93.7217 48.9056C95.0042 54.4569 95.4317 119.364 95.4317 119.364L101.845 128.759L101.417 136.872L50.1148 139.434V131.634L45.4121 122.353C45.4121 122.353 50.5423 48.0515 51.8249 47.6245C53.1074 47.1975 62.9403 40.3651 62.9403 40.3651L68.0706 32.2517V32.2517Z" fill="#7856FF"/>
<path d="M73.2949 30.6627C81.3227 30.6627 87.8305 24.1625 87.8305 16.144C87.8305 8.12551 81.3227 1.62524 73.2949 1.62524C65.2671 1.62524 58.7593 8.12551 58.7593 16.144C58.7593 24.1625 65.2671 30.6627 73.2949 30.6627Z" fill="#A0616A"/>
<path d="M84.9054 4.46609C84.1658 2.37083 82.1139 1.09968 79.8902 1.14919C79.7959 1.15126 79.7017 1.15039 79.6085 1.14657C78.4886 1.10083 77.4137 0.718781 76.3155 0.494654C74.269 0.0768977 72.111 0.216762 70.1356 0.895161C69.5216 1.10604 68.9069 1.37122 68.2576 1.37129C67.6083 1.37138 66.901 1.01576 66.7427 0.386843C66.7051 0.956258 66.6676 1.52564 66.6301 2.09503C66.4188 1.63418 66.2075 1.1733 65.9962 0.712428L65.5731 2.55034L64.2175 1.01431C64.3387 1.69134 63.9435 2.37371 63.4085 2.80656C62.8734 3.23943 62.2126 3.47887 61.5791 3.74856C58.8452 4.91256 56.2782 6.97342 55.4904 9.83577C54.9927 11.6442 55.253 13.5635 55.5168 15.4204C55.7499 17.0619 56.0034 18.7602 56.8967 20.1576C57.4694 21.0534 58.2948 21.8072 58.6435 22.8114C58.9685 23.7474 58.8454 24.819 59.3078 25.6955C59.7722 26.5759 60.7308 27.074 61.6691 27.4085C62.6073 27.7431 63.6047 27.9797 64.4127 28.5618C65.2206 29.144 66.1583 30.821 67.9187 30.7308L68.4869 29.6646C69.0714 29.1889 66.9083 29.566 66.8858 28.8133C66.8632 28.0607 69.4884 27.5956 69.1163 26.9406C68.5458 25.9363 67.7738 25.0622 67.1308 24.1023C66.3789 22.9799 65.7876 21.6683 66.047 20.2983C66.1479 19.7654 66.3976 19.262 66.7781 18.8748C67.8746 17.7588 69.0972 18.2494 70.2854 18.409C71.1044 18.5191 72.0825 18.392 72.5078 17.6842C73.0052 16.8562 72.4507 15.8029 72.5186 14.8396C72.5905 13.8189 73.3646 12.9819 74.2072 12.4C75.0498 11.8181 76.0065 11.3941 76.7645 10.7059C77.5224 10.0176 78.0624 8.94231 77.7319 7.97381C81.3249 6.47969 81.8749 6.33837 85.6585 7.24954C85.4781 6.30448 85.2257 5.37335 84.9054 4.4661L84.9054 4.46609Z" fill="#2F2E41"/>
<path d="M23.5405 190.159V146.09C23.5405 144.882 24.0563 143.725 24.9557 142.916C25.855 142.107 27.0608 141.716 28.2645 141.843C39.4149 140.345 49.9166 141.057 59.4341 145.126C60.5122 145.126 61.3892 146.002 61.3892 147.079V191.302C61.3892 192.379 60.5122 193.255 59.4341 193.255C48.9575 190.801 37.9076 191.44 26.6395 193.255C24.9307 193.255 23.5405 191.866 23.5405 190.159V190.159Z" fill="#E6E6E6"/>
<path d="M23.5405 194.083V149.547C23.5405 147.192 25.4586 145.277 27.8162 145.277C38.4787 142.49 49.0182 142.485 59.4341 145.277C60.5122 145.277 61.3893 146.153 61.3893 147.229V191C61.3893 192.075 60.5148 192.95 59.4389 192.953C49.1686 191.168 38.167 192.906 26.6395 197.178C24.9307 197.178 23.5405 195.789 23.5405 194.083V194.083Z" fill="#F2F2F2"/>
<path d="M48.1619 163.681H38.1916C34.6109 163.681 31.6978 160.771 31.6978 157.195C31.6978 153.618 34.6109 150.708 38.1916 150.708H48.1619C51.7429 150.708 54.656 153.618 54.656 157.195C54.656 160.771 51.7429 163.681 48.1619 163.681Z" fill="#E6E6E6"/>
<path d="M57.2999 76.2086L56.9188 99.2013C56.9188 99.2013 55.7008 117.12 52.6759 137.286L45.4658 137.745C45.4658 137.745 46.3529 106.259 46.0297 97.9744L46.5396 79.5728L57.2999 76.2086H57.2999Z" fill="#A0616A"/>
<path d="M49.7518 151.538C52.5138 151.444 54.6247 147.602 54.4666 142.955C54.3085 138.309 51.9412 134.618 49.1792 134.712C46.4173 134.806 44.3064 138.648 44.4645 143.295C44.6226 147.941 46.9899 151.632 49.7518 151.538Z" fill="#A0616A"/>
<path d="M57.1879 46.9363L51.6339 47.1383C51.6339 47.1383 48.6744 48.1006 47.9444 51.5456C47.2144 54.9906 42.0973 90.6431 42.9829 91.4655C43.8685 92.2879 44.723 92.2568 43.8996 93.1414C43.0763 94.0259 42.0645 94.0392 43.021 94.6571C43.9774 95.275 43.628 97.4243 43.628 97.4243L58.9892 96.3372L57.1879 46.9363V46.9363Z" fill="#7856FF"/>
<path d="M423.632 252.36H275.856C274.999 252.36 274.15 252.229 273.333 251.971L273.246 251.936C226.974 228.966 187.301 216.43 151.962 213.61L151.827 213.583C148.332 212.478 145.983 209.275 145.983 205.613V8.3661C145.983 5.67274 147.231 3.21495 149.406 1.62326C151.581 0.0315774 154.303 -0.415052 156.875 0.396435L273.698 37.3049C274.397 37.526 275.124 37.6379 275.856 37.6379H423.632C428.246 37.6379 432 41.3877 432 45.9966V244.001C432 248.61 428.246 252.36 423.632 252.36V252.36ZM273.741 250.832C274.427 251.043 275.138 251.151 275.856 251.151H423.632C427.579 251.151 430.79 247.944 430.79 244.001V45.9966C430.79 42.0543 427.579 38.847 423.632 38.847H275.856C274.999 38.847 274.151 38.7162 273.333 38.4579L156.51 1.54947C154.31 0.853988 151.982 1.23715 150.121 2.59859C148.261 3.96032 147.193 6.0624 147.193 8.3661V205.613C147.193 208.723 149.174 211.446 152.129 212.41C187.596 215.253 227.378 227.821 273.741 250.832L273.741 250.832Z" fill="#3F3D56"/>
<path d="M279.802 243.403C320.094 229.161 365.045 230.796 412.797 241.983C418.792 243.387 424.539 238.878 424.539 232.728V52.5008C424.539 48.1242 421.552 44.2976 417.296 43.258C366.921 30.9536 319.868 28.6898 278.401 43.3109C275.364 44.382 271.992 43.8017 269.428 41.8527C234.486 15.2846 198.724 1.96365 161.895 5.91898C157.077 6.43641 153.443 10.5376 153.443 15.3777V197.57C153.443 202.449 157.139 206.528 161.996 207.032C201.637 211.15 238.063 223.631 271.939 242.743C274.338 244.097 277.205 244.321 279.802 243.403V243.403Z" fill="#F2F2F2"/>
<path d="M278.508 233.296C275.764 233.296 273.061 232.543 270.68 231.065C242.23 213.417 211.234 203.107 178.554 200.422C170.893 199.792 164.891 193.265 164.891 185.561V29.9389C164.891 21.9515 171.093 15.4067 179.01 15.0392C202.803 13.931 231.693 24.5294 269.923 48.3808C273.157 50.3979 277.089 50.9968 280.713 50.0262C317.045 40.2848 356.43 40.0003 401.118 49.1563C408.056 50.578 413.091 56.7286 413.091 63.7817V215.683C413.091 220.267 411.027 224.525 407.428 227.364C403.803 230.225 399.138 231.25 394.629 230.178C352.354 220.128 316.053 220.854 283.649 232.4C281.966 233 280.228 233.296 278.508 233.296ZM182.406 16.1704C181.28 16.1704 180.169 16.1958 179.066 16.2471C171.796 16.5845 166.102 22.5985 166.102 29.9388V185.561C166.102 192.64 171.615 198.638 178.654 199.216C211.527 201.918 242.703 212.288 271.318 230.038C274.879 232.247 279.225 232.693 283.242 231.261L283.445 231.831L283.242 231.261C315.872 219.634 352.399 218.895 394.909 229.002C399.055 229.987 403.345 229.046 406.678 226.416C409.984 223.807 411.881 219.895 411.881 215.683V63.7817C411.881 57.3001 407.252 51.6474 400.875 50.3406C356.375 41.2227 317.173 41.5019 281.026 51.194C277.079 52.2514 272.799 51.6005 269.282 49.4063C233.052 26.803 205.308 16.1704 182.406 16.1704Z" fill="white"/>
<path d="M275.76 50.9293L274.549 50.9404L276.234 233.019L277.444 233.008L275.76 50.9293Z" fill="white"/>
<path d="M176.692 38.9134L176.312 40.061L261.069 68.0729L261.449 66.9253L176.692 38.9134Z" fill="#3F3D56"/>
<path d="M176.692 61.3232L176.312 62.4708L261.069 90.4827L261.449 89.335L176.692 61.3232Z" fill="#3F3D56"/>
<path d="M176.692 83.7325L176.312 84.8801L261.069 112.892L261.449 111.744L176.692 83.7325Z" fill="#3F3D56"/>
<path d="M176.692 106.142L176.312 107.29L261.069 135.301L261.449 134.154L176.692 106.142Z" fill="#3F3D56"/>
<path d="M397.741 68.1398H296.158V69.3489H397.741V68.1398Z" fill="#3F3D56"/>
<path d="M397.741 89.3043H296.158V90.5134H397.741V89.3043Z" fill="#3F3D56"/>
<path d="M397.741 110.469H296.158V111.678H397.741V110.469Z" fill="#3F3D56"/>
<path d="M397.741 131.633H296.158V132.843H397.741V131.633Z" fill="#3F3D56"/>
<path d="M397.741 152.798H296.158V154.007H397.741V152.798Z" fill="#3F3D56"/>
<path d="M397.741 173.963H296.158V175.172H397.741V173.963Z" fill="#3F3D56"/>
<path d="M32.8408 264.521C31.5903 264.599 30.8993 263.048 31.8453 262.143L31.9394 261.77C31.927 261.74 31.9146 261.71 31.902 261.68C30.6375 258.668 26.3518 258.689 25.0981 261.705C23.9852 264.382 22.5684 267.064 22.2196 269.894C22.0632 271.144 22.1335 272.417 22.4111 273.643C19.8036 267.954 18.4314 261.741 18.4314 255.494C18.4314 253.924 18.5175 252.354 18.6934 250.788C18.838 249.508 19.0374 248.235 19.2954 246.973C20.691 240.156 23.7129 233.662 28.0718 228.238C30.1672 227.094 31.9146 225.306 32.9701 223.162C33.3493 222.389 33.6464 221.557 33.7872 220.71C33.5487 220.741 32.888 217.114 33.0679 216.891C32.7355 216.387 32.1407 216.137 31.7778 215.646C29.9727 213.201 27.4858 213.628 26.1875 216.95C23.414 218.348 23.3872 220.667 25.089 222.897C26.1716 224.315 26.3204 226.235 27.2704 227.754C27.1726 227.879 27.071 228 26.9732 228.125C25.181 230.421 23.6309 232.889 22.3242 235.482C22.6935 232.6 22.1483 229.129 21.2188 226.891C20.1606 224.342 18.1774 222.194 16.4309 219.99C14.333 217.343 10.0312 218.498 9.66163 221.854C9.65806 221.887 9.65458 221.919 9.65116 221.952C9.91057 222.098 10.1647 222.253 10.413 222.417C11.829 223.353 11.3396 225.545 9.66179 225.804L9.6238 225.81C9.71763 226.743 9.87791 227.668 10.1124 228.578C7.8719 237.233 12.7091 240.385 19.6159 240.527C19.7684 240.605 19.917 240.683 20.0694 240.757C19.3697 242.725 18.8106 244.744 18.3963 246.79C18.0249 248.598 17.7668 250.425 17.6222 252.26C17.4424 254.576 17.458 256.903 17.6535 259.215L17.6418 259.133C17.1453 256.587 15.7614 254.209 13.752 252.561C10.7586 250.105 6.52953 249.201 3.3002 247.226C1.74569 246.276 -0.246296 247.504 0.025006 249.304L0.0382128 249.39C0.51905 249.586 0.988151 249.812 1.44164 250.066C1.70105 250.212 1.95519 250.367 2.20344 250.531C3.61944 251.467 3.13007 253.659 1.45227 253.918L1.41425 253.924C1.38689 253.928 1.36343 253.932 1.3361 253.936C2.16096 255.892 3.31027 257.708 4.74889 259.273C6.14984 266.829 12.167 267.545 18.6034 265.345H18.6074C19.311 268.407 20.3392 271.398 21.6605 274.248H32.5674C32.6066 274.127 32.6417 274.002 32.6769 273.881C31.6683 273.944 30.6519 273.885 29.6589 273.702C30.4682 272.71 31.2774 271.71 32.0866 270.718C32.1062 270.699 32.1218 270.679 32.1374 270.66C32.5479 270.152 32.9623 269.648 33.3728 269.141L33.373 269.14C33.3987 267.582 33.2117 266.029 32.8411 264.521L32.8408 264.521V264.521Z" fill="#F2F2F2"/>
<path d="M154.832 274.281C154.832 274.68 154.511 275 154.112 275H0.805221C0.405767 275 0.0849609 274.68 0.0849609 274.281C0.0849609 273.882 0.405767 273.561 0.805221 273.561H154.112C154.511 273.561 154.832 273.882 154.832 274.281V274.281Z" fill="#CCCCCC"/>
<path d="M402.008 236.037C409.696 236.037 415.929 229.811 415.929 222.132C415.929 214.452 409.696 208.227 402.008 208.227C394.32 208.227 388.087 214.452 388.087 222.132C388.087 229.811 394.32 236.037 402.008 236.037Z" fill="#7856FF"/>
<path d="M408.527 221.608L399.889 216.626C399.486 216.394 398.981 216.685 398.981 217.15V221.527H396.39C396.056 221.527 395.785 221.798 395.785 222.132C395.785 222.466 396.056 222.736 396.39 222.736H398.981V227.114C398.981 227.579 399.486 227.87 399.889 227.637L408.527 222.655C408.93 222.423 408.93 221.841 408.527 221.608V221.608Z" fill="white"/>
<path d="M203.772 182.936C204.314 176.74 206.89 170.82 211.012 166.162C215.028 161.624 220.516 158.511 226.435 157.243C229.739 156.535 233.162 156.397 236.508 156.874C237.309 156.988 237.288 158.258 236.478 158.143C230.783 157.331 224.897 158.323 219.78 160.949C214.535 163.642 210.337 168.02 207.744 173.301C206.261 176.32 205.336 179.616 205.042 182.966C204.972 183.777 203.701 183.752 203.772 182.936V182.936Z" fill="white"/>
<path d="M235.099 151.779L244.881 156.6C245.237 156.775 245.295 157.354 244.993 157.603L235.732 165.25C235.106 165.767 234.223 164.853 234.855 164.331L244.116 156.685L244.228 157.689L234.445 152.868C233.711 152.506 234.37 151.42 235.099 151.779V151.779Z" fill="white"/>
</g>
<defs>
<clipPath id="clip0_232_273">
<rect width="432" height="275" fill="white"/>
</clipPath>
</defs>
</svg>
