<svg width="32" height="33" viewBox="0 0 32 33" fill="none" xmlns="http://www.w3.org/2000/svg">
<g clip-path="url(#clip0_157_810)">
<path d="M15.6879 9.02002L16.9629 17.417L15.6879 32.114L3.02189 27.914L3.19989 13.44L15.6879 9.02002Z" fill="#C48958"/>
<path d="M28.3555 13.218V27.915L15.6885 32.114V9.01904L28.3555 13.219V13.218Z" fill="#E3A76F"/>
<path d="M14.0052 12.553C14.2105 12.1295 14.2587 11.6468 14.1412 11.191C14.0232 10.736 13.7472 10.338 13.3622 10.071L13.2272 9.973L12.8072 9.829L9.32423 8.826C9.23601 8.79627 9.14066 8.79516 9.05178 8.82281C8.96289 8.85046 8.88501 8.90547 8.82923 8.98C8.77276 9.05418 8.74078 9.1441 8.73773 9.23728C8.73469 9.33047 8.76072 9.42228 8.81223 9.5L11.2252 13.172C11.3432 13.29 11.4762 13.392 11.6202 13.477C12.0602 13.643 12.5462 13.64 12.9852 13.47C13.4257 13.299 13.7885 12.9729 14.0052 12.553V12.553Z" fill="#FFA400"/>
<path d="M10.4736 15.1999L11.0946 13.5959L10.4806 15.2049C9.58055 15.7409 5.23855 18.5049 3.55255 23.4189L3.38455 23.9069C3.32323 24.1266 3.34899 24.3615 3.45647 24.5627C3.56394 24.7638 3.74486 24.9158 3.96155 24.9869L17.7366 29.7129C18.0646 28.7579 12.6806 25.1869 13.5296 22.7129C14.9656 18.5179 12.0196 16.1269 10.4736 15.1999V15.1999Z" fill="#E6E6E6"/>
<path d="M11.2601 13.178C12.2171 13.542 13.2071 13.592 13.7151 12.577C13.9198 12.1268 13.9605 11.6191 13.8301 11.142C13.6997 10.6649 13.4064 10.2485 13.0011 9.96503L12.8561 9.86103C13.8403 8.62258 15.2598 7.8061 16.8251 7.57803C18.3883 7.35039 19.9794 7.72927 21.2721 8.63703C22.3667 9.40251 23.1805 10.5054 23.5891 11.777C23.9984 13.0504 23.9809 14.4226 23.5391 15.685L23.5291 15.715C23.3471 16.247 20.6721 24.199 18.9051 29.195C18.7471 29.654 18.1201 29.845 17.6701 29.69L16.8101 29.395C16.1563 29.1726 15.5528 28.8232 15.0344 28.3669C14.5159 27.9106 14.0927 27.3564 13.7891 26.736C13.1738 25.4821 13.0814 24.0351 13.5321 22.713C14.9721 18.515 12.0351 16.129 10.4921 15.188L11.2601 13.178Z" fill="#404041"/>
<path d="M18.9382 12.998C18.8242 13.336 18.6132 13.633 18.3332 13.852C18.0532 14.071 17.7162 14.201 17.3642 14.226C17.0129 14.252 16.6618 14.1714 16.3569 13.9948C16.0521 13.8181 15.8075 13.5537 15.6552 13.236C15.5017 12.9148 15.445 12.5559 15.492 12.2031C15.5391 11.8502 15.6879 11.5187 15.9202 11.249C16.152 10.9799 16.4582 10.7854 16.8002 10.69C17.0818 10.6123 17.3782 10.606 17.6628 10.6717C17.9474 10.7373 18.2112 10.8729 18.4302 11.066C18.6937 11.3023 18.8816 11.6111 18.9706 11.9536C19.0595 12.2962 19.0455 12.6574 18.9302 12.992L18.9382 12.998V12.998ZM18.2082 12.748C18.2749 12.5575 18.2842 12.3517 18.2352 12.156C18.1852 11.96 18.0812 11.786 17.9332 11.652C17.7855 11.5181 17.6008 11.432 17.4032 11.4049C17.2057 11.3778 17.0046 11.4109 16.8262 11.5C16.645 11.5888 16.4941 11.729 16.3921 11.9031C16.2902 12.0772 16.2419 12.2775 16.2532 12.479C16.2632 12.68 16.3332 12.873 16.4522 13.034C16.5509 13.1664 16.6811 13.2721 16.8309 13.3416C16.9807 13.4111 17.1454 13.4421 17.3102 13.432C17.4427 13.4236 17.5722 13.3889 17.6912 13.33C17.8101 13.2712 17.9162 13.1892 18.0032 13.089C18.0916 12.9884 18.1595 12.8715 18.2032 12.745L18.2082 12.747V12.748Z" fill="white"/>
<path d="M15.3605 16.64L18.7735 22.65L20.4805 29.329L15.3605 31.999V16.64Z" fill="#E3A76F"/>
<path d="M15.3604 32V16.64L11.5204 22.4L3.20035 19.84V25.6L15.3604 32Z" fill="#C48958"/>
<path d="M26.8799 21.76V26.996L16.6399 28.16V21.76H26.8799V21.76ZM11.9269 23.04L15.3599 16.64L3.43288 12.8L-0.000118256 18.736L11.9269 23.04Z" fill="#E3A76F"/>
<path d="M18.56 23.04L15.36 16.64L28.281 12.8L32 18.736L18.56 23.04Z" fill="#F2D1A5"/>
<circle cx="17.25" cy="12.45" r="1.75" fill="white"/>
<line x1="16.4551" y1="11.5917" x2="18.0528" y2="13.2461" stroke="#404041" stroke-width="0.6"/>
<path d="M21.9762 9.02841L24.4481 9.00296L24.4435 8.55899L22.6676 8.57727L24.3576 6.03974L24.3546 5.74575L22.1347 5.76861L22.1393 6.21259L23.6692 6.19683L21.9733 8.74043L21.9762 9.02841Z" fill="#404041"/>
<path d="M27.3646 5.03786L30.6605 5.00393L30.6544 4.41196L28.2865 4.43634L30.5398 1.05296L30.5357 0.660982L27.5759 0.691455L27.582 1.28342L29.6219 1.26242L27.3607 4.65388L27.3646 5.03786Z" fill="#404041"/>
<path d="M24.8203 7.03826L27.7042 7.00857L27.6989 6.4906L25.627 6.51193L27.5986 3.55148L27.5951 3.2085L25.0052 3.23516L25.0105 3.75313L26.7954 3.73476L24.8169 6.70228L24.8203 7.03826Z" fill="#404041"/>
</g>
<defs>
<clipPath id="clip0_157_810">
<rect width="32" height="33" fill="white" transform="matrix(-1 0 0 1 32 0)"/>
</clipPath>
</defs>
</svg>
