<svg width="55" height="56" viewBox="0 0 55 56" fill="none" xmlns="http://www.w3.org/2000/svg">
<g clip-path="url(#clip0_310_395)">
<path d="M26.9637 15.3066L29.1552 29.5561L26.9637 54.4965L5.19406 47.3692L5.5 22.8072L26.9637 15.3066Z" fill="#C48958"/>
<path d="M48.7352 22.4308V47.3711L26.9638 54.4967V15.3052L48.7352 22.4324V22.4308Z" fill="#E3A76F"/>
<path d="M24.0711 21.3019C24.4239 20.5831 24.5068 19.764 24.3048 18.9906C24.102 18.2185 23.6276 17.5431 22.9659 17.09L22.7339 16.9237L22.012 16.6793L16.0256 14.9773C15.874 14.9268 15.7101 14.9249 15.5573 14.9718C15.4046 15.0188 15.2707 15.1121 15.1748 15.2386C15.0778 15.3645 15.0228 15.5171 15.0176 15.6752C15.0123 15.8333 15.0571 15.9891 15.1456 16.121L19.293 22.3523C19.4958 22.5525 19.7244 22.7256 19.9719 22.8699C20.7281 23.1516 21.5634 23.1465 22.318 22.858C23.0751 22.5679 23.6986 22.0144 24.0711 21.3019Z" fill="#FFA400"/>
<path d="M18.0022 25.7937L19.0695 23.0718L18.0142 25.8022C16.4673 26.7118 9.00453 31.4022 6.10671 39.7411L5.81796 40.5692C5.71257 40.942 5.75684 41.3406 5.94156 41.682C6.12629 42.0233 6.43723 42.2812 6.80968 42.402L30.4855 50.4218C31.0492 48.8012 21.7955 42.7414 23.2547 38.543C25.7228 31.4243 20.6594 27.3668 18.0022 25.7937Z" fill="#E6E6E6"/>
<path d="M19.3531 22.3627C20.9979 22.9804 22.6995 23.0652 23.5726 21.3428C23.9244 20.5787 23.9943 19.7172 23.7702 18.9076C23.546 18.098 23.042 17.3914 22.3454 16.9103L22.0962 16.7338C23.7878 14.6322 26.2275 13.2467 28.918 12.8596C31.6046 12.4733 34.3393 13.1163 36.5612 14.6567C38.4426 15.9557 39.8413 17.8272 40.5436 19.9852C41.2471 22.1461 41.2169 24.4746 40.4576 26.617L40.4405 26.6679C40.1276 27.5707 35.53 41.065 32.493 49.543C32.2214 50.3219 31.1437 50.6461 30.3703 50.383L28.8922 49.8824C27.7683 49.505 26.7311 48.9121 25.84 48.1378C24.949 47.3634 24.2216 46.4229 23.6998 45.3702C22.6422 43.2422 22.4834 40.7868 23.2581 38.5433C25.7331 31.4194 20.6851 27.3704 18.0331 25.7736L19.3548 22.3627H19.3531Z" fill="#404041"/>
<path d="M32.5497 22.0572C32.3538 22.6308 31.9911 23.1348 31.5099 23.5064C31.0286 23.878 30.4494 24.0987 29.8444 24.1411C29.2405 24.1851 28.6371 24.0484 28.1131 23.7487C27.5891 23.449 27.1688 23.0003 26.907 22.4611C26.6431 21.9161 26.5457 21.307 26.6266 20.7082C26.7074 20.1094 26.9632 19.5469 27.3625 19.0892C27.7609 18.6326 28.2871 18.3026 28.875 18.1406C29.3589 18.0088 29.8685 17.9981 30.3576 18.1095C30.8467 18.2209 31.3 18.4509 31.6766 18.7787C32.1294 19.1797 32.4524 19.7036 32.6053 20.2849C32.7581 20.8663 32.734 21.4792 32.5359 22.047L32.5497 22.0572ZM31.295 21.633C31.4095 21.3098 31.4257 20.9605 31.3414 20.6284C31.2555 20.2957 31.0767 20.0005 30.8224 19.7731C30.5684 19.5459 30.2509 19.3998 29.9114 19.3537C29.5719 19.3077 29.2263 19.364 28.9197 19.5151C28.6083 19.6658 28.3488 19.9037 28.1736 20.1992C27.9984 20.4947 27.9154 20.8346 27.9349 21.1765C27.952 21.5176 28.0724 21.8451 28.2769 22.1183C28.4465 22.343 28.6702 22.5223 28.9277 22.6403C29.1851 22.7582 29.4683 22.8109 29.7516 22.7937C29.9793 22.7794 30.2018 22.7206 30.4063 22.6207C30.6107 22.5207 30.7931 22.3817 30.9427 22.2116C31.0945 22.0409 31.2113 21.8426 31.2864 21.6279L31.295 21.6313V21.633Z" fill="white"/>
<path d="M29.0434 22.7056C28.8207 22.6368 28.6142 22.5246 28.4361 22.3756C28.258 22.2267 28.1119 22.044 28.0066 21.8383C27.9012 21.6327 27.8387 21.4083 27.8227 21.1784C27.8066 20.9485 27.8374 20.7178 27.9133 20.4998C27.9891 20.2819 28.1084 20.0812 28.2642 19.9096C28.4199 19.7379 28.609 19.5989 28.8201 19.5006C29.0312 19.4023 29.2601 19.3468 29.4933 19.3374C29.7265 19.328 29.9593 19.3648 30.1778 19.4457C30.6036 19.6033 30.9503 19.9187 31.1443 20.3248C31.3382 20.7309 31.364 21.1957 31.2163 21.6203C31.0685 22.0449 30.7588 22.3958 30.3531 22.5985C29.9473 22.8012 29.4774 22.8396 29.0434 22.7056Z" fill="#2B2B2B"/>
<path d="M26.4 28.2378L32.2661 38.4366L35.2 49.7706L26.4 54.3016V28.2378Z" fill="#E3A76F"/>
<path d="M26.4 54.3032V28.2378L19.8 38.0123L5.50002 33.6681V43.4426L26.4 54.3032Z" fill="#C48958"/>
<path d="M46.2 36.926V45.8114L28.6 47.7866V36.926H46.2ZM20.4995 39.0982L26.4 28.2376L5.90048 21.7212L7.62939e-06 31.7944L20.4995 39.0982Z" fill="#E3A76F"/>
<path d="M31.9 39.0982L26.4 28.2376L48.608 21.7212L55 31.7944L31.9 39.0982Z" fill="#F2D1A5"/>
<path d="M33 0H28.6V8.68848H33V0ZM44.5964 4.91951L42.063 3.4737L37.1766 11.8279L39.7117 13.272L44.5964 4.92121V4.91951ZM21.5703 10.3685L16.6857 2.016L14.1505 3.45842L19.0369 11.8143L21.5703 10.3685Z" fill="#FFDA44"/>
</g>
<defs>
<clipPath id="clip0_310_395">
<rect width="55" height="56" fill="white" transform="matrix(-1 0 0 1 55 0)"/>
</clipPath>
</defs>
</svg>
