<svg width="62" height="81" viewBox="0 0 62 81" fill="none" xmlns="http://www.w3.org/2000/svg">
<path d="M24.1056 24.64C24.3178 22.8913 23.8984 21.1243 22.923 19.6575C21.9476 18.1907 20.4803 17.1205 18.7856 16.64L18.1856 16.46H16.5156L2.89558 17.14C2.54677 17.142 2.20737 17.2533 1.925 17.4581C1.64264 17.6629 1.4315 17.9509 1.32119 18.2818C1.21089 18.6127 1.20697 18.9699 1.30998 19.3031C1.413 19.6364 1.61778 19.929 1.89558 20.14L14.9656 30.2C15.5311 30.4747 16.1292 30.6763 16.7456 30.8C18.514 30.8533 20.2405 30.2555 21.5973 29.1199C22.9541 27.9844 23.8466 26.3902 24.1056 24.64V24.64Z" fill="#FFA400"/>
<path d="M14.7155 38.3201L14.9655 31.8701L14.7455 38.3301C12.2055 41.3301 0.165497 56.4301 0.165497 75.9301C0.165497 76.5968 0.165497 77.2435 0.165497 77.8701C0.216786 78.7234 0.594238 79.5242 1.2197 80.1069C1.84517 80.6896 2.67074 81.0094 3.5255 81.0001H58.1355C58.1355 77.2101 34.6955 71.0901 34.6955 61.2701C34.6855 44.6301 21.3255 39.7301 14.7155 38.3201Z" fill="#E6E6E6"/>
<path d="M14.9656 30.2001C18.8156 30.3301 22.3956 29.3001 22.9656 25.0801C23.1462 23.2304 22.6714 21.3761 21.6241 19.8408C20.5768 18.3056 19.0236 17.1869 17.2356 16.6801L16.5956 16.4901C18.5903 10.8942 22.6438 6.26951 27.93 3.55858C33.2162 0.847661 39.3373 0.254536 45.0456 1.90009C49.8716 3.28153 54.1131 6.2039 57.123 10.2213C60.1328 14.2386 61.7457 19.1304 61.7156 24.1501V24.2701C61.7156 26.3801 61.9056 57.8501 61.7156 77.7301C61.7156 79.5501 59.7156 80.9901 57.9256 80.9901H54.5056C51.9094 80.9967 49.3373 80.4918 46.9361 79.5043C44.535 78.5169 42.3519 77.0661 40.5114 75.235C38.671 73.4038 37.2092 71.228 36.2096 68.8319C35.21 66.4358 34.6922 63.8663 34.6856 61.2701C34.6856 44.6201 21.3256 39.7301 14.6856 38.2701L14.9656 30.2001Z" fill="#404041"/>
<path d="M42.1056 20.17C42.1116 21.4964 41.7237 22.7947 40.9911 23.9005C40.2585 25.0062 39.2142 25.8697 37.9905 26.3814C36.7668 26.8931 35.4187 27.0301 34.117 26.7749C32.8154 26.5198 31.6188 25.8841 30.6787 24.9483C29.7387 24.0125 29.0976 22.8187 28.8367 21.5182C28.5757 20.2177 28.7066 18.869 29.2128 17.643C29.719 16.417 30.5778 15.3688 31.6802 14.6313C32.7827 13.8938 34.0792 13.5 35.4056 13.5C36.2837 13.4974 37.1537 13.6679 37.9658 14.0018C38.7779 14.3357 39.5162 14.8264 40.1385 15.4459C40.7608 16.0654 41.2548 16.8015 41.5924 17.6121C41.9299 18.4228 42.1043 19.292 42.1056 20.17V20.17ZM39.1956 20.17C39.1996 19.4196 38.9807 18.6849 38.5667 18.059C38.1526 17.4331 37.5621 16.9442 36.8699 16.6543C36.1778 16.3644 35.4151 16.2865 34.6786 16.4304C33.9421 16.5744 33.2649 16.9338 32.7329 17.463C32.2008 17.9923 31.8379 18.6675 31.69 19.4033C31.5421 20.139 31.616 20.902 31.9023 21.5957C32.1885 22.2894 32.6743 22.8825 33.298 23.2999C33.9217 23.7172 34.6552 23.94 35.4056 23.94C35.902 23.9413 36.3938 23.8449 36.853 23.6561C37.3121 23.4674 37.7295 23.19 38.0814 22.84C38.4334 22.4899 38.7129 22.0739 38.9041 21.6158C39.0953 21.1577 39.1943 20.6664 39.1956 20.17V20.17Z" fill="white"/>
<path d="M35.4056 23.9399C33.3124 23.9399 31.6156 22.252 31.6156 20.1699C31.6156 18.0878 33.3124 16.3999 35.4056 16.3999C37.4987 16.3999 39.1956 18.0878 39.1956 20.1699C39.1956 22.252 37.4987 23.9399 35.4056 23.9399Z" fill="#2B2B2B"/>
</svg>
