<svg width="511" height="511" viewBox="0 0 511 511" fill="none" xmlns="http://www.w3.org/2000/svg">
<path d="M337.85 397.15C343.85 422.15 354.76 455.4 369.85 455.4C381.57 455.4 389.34 432.07 394.23 408.12C365.88 411.86 342.54 399.79 337.85 397.15Z" fill="#FFCB9D"/>
<path d="M195.59 386C195.59 386 167.38 402 135.92 398.68C142.04 423.49 152.77 455.44 167.51 455.44C182.92 455.44 191.51 415.21 195.67 386.16L195.59 386Z" fill="#FFCB9D"/>
<path d="M83.2799 235.57C83.2799 235.57 51.4799 178.31 83.2799 133.98C113.71 91.5601 166.76 107.17 166.76 107.17C166.76 107.17 185.76 64.4301 227.76 57.8101C273.76 50.5801 297.76 87.6601 297.76 87.6601C297.76 87.6601 347.19 63.2501 383.45 92.1501C419.51 120.89 409.87 159 409.87 159C409.87 159 459.4 161 471.24 207.06C482.31 250.16 452.44 278.45 452.44 278.45C452.44 278.45 489.98 348.56 433.83 391.45C386.83 427.33 336.99 396.7 336.99 396.7C336.99 396.7 312.37 431.58 253.28 424.3C212.28 419.24 195.59 386.01 195.59 386.01C195.59 386.01 135.8 420.01 93.2499 378.66C45.5099 332.25 83.2799 235.57 83.2799 235.57V235.57Z" fill="#FFE9C8"/>
<path d="M195.67 386.12L195.59 385.96C195.59 385.96 167.38 401.96 135.92 398.64C137.84 406.43 140.22 414.92 143.03 422.9C164.12 423.32 182.79 415.9 191.03 412.06C193 403.29 194.5 394.27 195.67 386.12V386.12Z" fill="#FFBA7E"/>
<path d="M337.85 397.15C340.068 406.551 342.806 415.822 346.05 424.92C359.223 430.533 373.484 433.133 387.79 432.53C390.433 424.535 392.57 416.383 394.19 408.12C365.88 411.86 342.54 399.79 337.85 397.15V397.15Z" fill="#FFBA7E"/>
<path d="M409.87 135.15H410C410 135.07 410 134.98 409.95 134.9C409.93 134.985 409.904 135.069 409.87 135.15Z" fill="#FFDCA7"/>
<path d="M433.83 367.58C386.83 403.46 336.99 372.83 336.99 372.83C336.99 372.83 312.37 407.71 253.28 400.43C212.28 395.37 195.59 362.14 195.59 362.14C195.59 362.14 135.8 396.14 93.2501 354.79C77.6601 339.65 71.1901 319.15 69.5501 298.39C67.5501 326.39 71.6501 357.64 93.2501 378.62C135.8 419.94 195.59 386 195.59 386C195.59 386 212.24 419.24 253.28 424.29C312.37 431.57 336.99 396.69 336.99 396.69C336.99 396.69 386.82 427.33 433.83 391.44C462.74 369.38 466.83 340.1 463.96 316.87C461.62 334.3 453.45 352.61 433.83 367.58V367.58Z" fill="#FFDCA7"/>
<path d="M195.31 230.1C187.4 191.58 144.62 171.69 109.67 189.47C77.04 206.07 34.48 233.47 37.45 262.62C41.08 298.2 93.85 313.21 140.3 306.82C176.51 301.82 202.1 267.82 195.64 231.76C195.54 231.21 195.43 230.65 195.31 230.1Z" fill="#FFCB9D"/>
<path d="M195.5 231.05C192.85 244.377 186.108 256.545 176.212 265.858C166.317 275.17 153.763 281.163 140.3 283C98.0699 288.82 50.5999 276.93 39.6099 248C37.74 252.647 36.9997 257.671 37.4499 262.66C41.0799 298.24 93.8499 313.25 140.3 306.86C176.51 301.86 202.1 267.86 195.64 231.8C195.59 231.52 195.54 231.29 195.5 231.05V231.05Z" fill="#FFBA7E"/>
<path d="M131.44 219C123.96 219 118.09 226.3 118.09 235.62C118.09 244.94 123.96 252.24 131.44 252.24C138.92 252.24 144.78 244.94 144.78 235.62C144.78 226.3 138.92 219 131.44 219Z" fill="#433F43"/>
<path d="M169.63 162.73C169.63 162.73 165.4 134.51 192.37 136C218.7 137.42 218.48 170.1 199.78 176.09L169.63 162.73Z" fill="#FFCB9D"/>
</svg>
